<svg xmlns="http://www.w3.org/2000/svg" width="1200" height="675" viewBox="0 0 1200 675" role="img" aria-labelledby="title desc">
  <title id="title">Best espresso machines under 200 dollars by workflow fit</title>
  <desc id="desc">Editorial hero illustration comparing budget espresso machine styles, milk workflow, and beginner-friendly value tiers under 200 dollars.</desc>
  <rect x="0" y="0" width="1200" height="675" fill="#FAF8F5"/>
  <rect x="56" y="56" width="1088" height="563" rx="12" fill="#F5EDE4"/>

  <text x="96" y="132" fill="#2C1810" font-family="Inter, system-ui, sans-serif" font-size="46" font-weight="800">Best Espresso Machines Under $200</text>
  <text x="96" y="174" fill="#5C3D2E" font-family="Inter, system-ui, sans-serif" font-size="24" font-weight="400">Choose by workflow fit: control, milk drinks, or one-button speed</text>

  <rect x="96" y="218" width="312" height="340" rx="12" fill="#EFDFCE"/>
  <rect x="444" y="218" width="312" height="340" rx="12" fill="#EFDFCE"/>
  <rect x="792" y="218" width="312" height="340" rx="12" fill="#EFDFCE"/>

  <text x="116" y="260" fill="#2C1810" font-family="Inter, system-ui, sans-serif" font-size="24" font-weight="600">Manual Control</text>
  <text x="464" y="260" fill="#2C1810" font-family="Inter, system-ui, sans-serif" font-size="24" font-weight="600">Milk Workflow</text>
  <text x="812" y="260" fill="#2C1810" font-family="Inter, system-ui, sans-serif" font-size="24" font-weight="600">Fast Convenience</text>

  <rect x="166" y="295" width="172" height="140" rx="12" fill="#FAF8F5" stroke="#5C3D2E" stroke-width="3"/>
  <rect x="514" y="295" width="172" height="140" rx="12" fill="#FAF8F5" stroke="#5C3D2E" stroke-width="3"/>
  <rect x="862" y="295" width="172" height="140" rx="12" fill="#FAF8F5" stroke="#5C3D2E" stroke-width="3"/>

  <rect x="197" y="323" width="110" height="52" rx="8" fill="#EFDFCE" stroke="#7A5B4A" stroke-width="2"/>
  <circle cx="225" cy="396" r="12" fill="#5C3D2E"/>
  <circle cx="279" cy="396" r="12" fill="#5C3D2E"/>

  <rect x="545" y="320" width="110" height="55" rx="8" fill="#EFDFCE" stroke="#7A5B4A" stroke-width="2"/>
  <path d="M 561 388 C 583 410, 617 410, 639 388" fill="none" stroke="#5C3D2E" stroke-width="4" stroke-linecap="round"/>
  <circle cx="600" cy="414" r="12" fill="#5C3D2E"/>

  <rect x="893" y="320" width="110" height="55" rx="8" fill="#EFDFCE" stroke="#7A5B4A" stroke-width="2"/>
  <rect x="930" y="385" width="36" height="42" rx="6" fill="#5C3D2E"/>

  <rect x="116" y="460" width="272" height="78" rx="12" fill="#FAF8F5" stroke="#059669" stroke-width="2"/>
  <rect x="464" y="460" width="272" height="78" rx="12" fill="#FAF8F5" stroke="#059669" stroke-width="2"/>
  <rect x="812" y="460" width="272" height="78" rx="12" fill="#FAF8F5" stroke="#059669" stroke-width="2"/>

  <text x="136" y="494" fill="#2C1810" font-family="Inter, system-ui, sans-serif" font-size="22" font-weight="600">Best for learning shots</text>
  <text x="136" y="523" fill="#7A5B4A" font-family="Inter, system-ui, sans-serif" font-size="18" font-weight="400">Hands-on barista-style workflow</text>

  <text x="484" y="494" fill="#2C1810" font-family="Inter, system-ui, sans-serif" font-size="22" font-weight="600">Best for cappuccinos</text>
  <text x="484" y="523" fill="#7A5B4A" font-family="Inter, system-ui, sans-serif" font-size="18" font-weight="400">Better steaming and milk texture</text>

  <text x="832" y="494" fill="#2C1810" font-family="Inter, system-ui, sans-serif" font-size="22" font-weight="600">Best for busy mornings</text>
  <text x="832" y="523" fill="#7A5B4A" font-family="Inter, system-ui, sans-serif" font-size="18" font-weight="400">Quick setup and easy cleanup</text>
</svg>
