<svg xmlns="http://www.w3.org/2000/svg" width="1200" height="675" viewBox="0 0 1200 675" role="img" aria-labelledby="title desc">
  <title id="title">Pour-over grinder comparison concept illustration</title>
  <desc id="desc">Warm editorial graphic showing abstract grinder forms, grind particle distribution, and a brew workflow path from whole beans to dripper for pour-over coffee.</desc>
  <rect width="1200" height="675" fill="#FAF8F5"/>

  <rect x="70" y="72" width="1060" height="531" rx="12" fill="#F5EDE4"/>

  <text x="120" y="142" fill="#2C1810" font-family="Inter, system-ui, sans-serif" font-size="46" font-weight="800">Best Grinder Setup for Pour Over</text>
  <text x="120" y="182" fill="#5C3D2E" font-family="Inter, system-ui, sans-serif" font-size="23" font-weight="400">Clarity, fines control, and smooth morning workflow</text>

  <rect x="120" y="235" width="280" height="300" rx="12" fill="#EFDFCE"/>
  <rect x="145" y="270" width="68" height="170" rx="10" fill="#5C3D2E"/>
  <rect x="155" y="250" width="48" height="28" rx="8" fill="#2C1810"/>
  <rect x="225" y="305" width="145" height="16" rx="8" fill="#7A5B4A"/>
  <rect x="225" y="332" width="120" height="12" rx="6" fill="#7A5B4A"/>
  <rect x="225" y="354" width="130" height="12" rx="6" fill="#7A5B4A"/>
  <text x="145" y="500" fill="#5C3D2E" font-family="Inter, system-ui, sans-serif" font-size="20" font-weight="600">Stable grind range</text>

  <rect x="460" y="235" width="280" height="300" rx="12" fill="#EFDFCE"/>
  <circle cx="600" cy="325" r="58" fill="none" stroke="#2C1810" stroke-width="10"/>
  <circle cx="600" cy="325" r="34" fill="none" stroke="#5C3D2E" stroke-width="8"/>
  <circle cx="600" cy="325" r="12" fill="#2C1810"/>
  <path d="M510 430 C550 392 650 392 690 430" fill="none" stroke="#059669" stroke-width="8" stroke-linecap="round"/>
  <path d="M528 455 C560 430 640 430 672 455" fill="none" stroke="#059669" stroke-width="6" stroke-linecap="round"/>
  <text x="500" y="500" fill="#5C3D2E" font-family="Inter, system-ui, sans-serif" font-size="20" font-weight="600">Fines kept in check</text>

  <rect x="800" y="235" width="280" height="300" rx="12" fill="#EFDFCE"/>
  <path d="M860 300 L960 300 L942 374 L878 374 Z" fill="#2C1810"/>
  <rect x="902" y="374" width="16" height="90" rx="8" fill="#5C3D2E"/>
  <ellipse cx="910" cy="470" rx="44" ry="15" fill="#7A5B4A" opacity="0.35"/>
  <path d="M820 430 C860 430 890 410 920 400" fill="none" stroke="#059669" stroke-width="7" stroke-linecap="round"/>
  <path d="M915 400 C965 390 1005 392 1050 420" fill="none" stroke="#059669" stroke-width="7" stroke-linecap="round"/>
  <text x="838" y="500" fill="#5C3D2E" font-family="Inter, system-ui, sans-serif" font-size="20" font-weight="600">Repeatable brew flow</text>

  <rect x="120" y="560" width="960" height="4" rx="2" fill="#B89B8A"/>
</svg>
