<svg xmlns="http://www.w3.org/2000/svg" xmlns:xlink="http://www.w3.org/1999/xlink" width="960" height="720" viewBox="0 0 960 720" role="img" aria-labelledby="title desc">
  <title id="title">Editorial comparison of seven espresso burr grinders across budget, workflow style, and precision needs</title>
  <desc id="desc">Four buyer-profile cards showing budget, precision, quiet, and manual grinder categories with key traits, top picks, and Amazon links.</desc>

  <!-- Background -->
  <rect width="960" height="720" fill="#FAF8F5"/>
  <rect x="24" y="24" width="912" height="672" rx="16" fill="#F5EDE4"/>

  <!-- Header -->
  <text x="480" y="76" fill="#2C1810" font-family="Inter, system-ui, sans-serif" font-size="34" font-weight="800" text-anchor="middle">Best Burr Grinder for Espresso</text>
  <text x="480" y="110" fill="#5C3D2E" font-family="Inter, system-ui, sans-serif" font-size="17" font-weight="400" text-anchor="middle">7 picks compared by workflow fit — find the right grinder for how you brew</text>

  <!-- Divider line -->
  <line x1="140" y1="130" x2="820" y2="130" stroke="#D4C4B0" stroke-width="1"/>

  <!-- ==================== Card 1: Budget ==================== -->
  <rect x="44" y="150" width="210" height="520" rx="12" fill="#EFDFCE"/>
  <!-- Header band -->
  <rect x="44" y="150" width="210" height="90" rx="12" fill="#059669"/>
  <rect x="44" y="214" width="210" height="26" fill="#059669"/>
  <!-- Dollar icon -->
  <circle cx="149" cy="190" r="26" fill="none" stroke="#fff" stroke-width="2.5"/>
  <text x="149" y="200" fill="#fff" font-family="Inter, system-ui, sans-serif" font-size="30" font-weight="700" text-anchor="middle">$</text>
  <text x="149" y="232" fill="#fff" font-family="Inter, system-ui, sans-serif" font-size="14" font-weight="700" text-anchor="middle" letter-spacing="2">BUDGET</text>

  <!-- Tagline -->
  <text x="149" y="272" fill="#2C1810" font-family="Inter, system-ui, sans-serif" font-size="15" font-weight="600" text-anchor="middle">Best value for new brewers</text>
  <line x1="72" y1="288" x2="226" y2="288" stroke="#D4C4B0" stroke-width="1"/>

  <!-- Features -->
  <text x="68" y="318" fill="#5C3D2E" font-family="Inter, system-ui, sans-serif" font-size="15" font-weight="400">&#x2713;  Stepped adjustment</text>
  <text x="68" y="348" fill="#5C3D2E" font-family="Inter, system-ui, sans-serif" font-size="15" font-weight="400">&#x2713;  Conical burrs</text>
  <text x="68" y="378" fill="#5C3D2E" font-family="Inter, system-ui, sans-serif" font-size="15" font-weight="400">&#x2713;  Simple workflow</text>
  <text x="68" y="408" fill="#5C3D2E" font-family="Inter, system-ui, sans-serif" font-size="15" font-weight="400">&#x2713;  Under $200</text>

  <!-- Top pick box -->
  <rect x="58" y="436" width="182" height="62" rx="8" fill="#FAF8F5" stroke="#059669" stroke-width="1.5"/>
  <text x="149" y="460" fill="#059669" font-family="Inter, system-ui, sans-serif" font-size="11" font-weight="700" text-anchor="middle" letter-spacing="1.5">TOP PICK</text>
  <text x="149" y="484" fill="#2C1810" font-family="Inter, system-ui, sans-serif" font-size="16" font-weight="600" text-anchor="middle">Baratza Encore ESP</text>

  <!-- Price -->
  <text x="149" y="528" fill="#7A5B4A" font-family="Inter, system-ui, sans-serif" font-size="22" font-weight="600" text-anchor="middle">$$</text>
  <text x="149" y="548" fill="#9A8577" font-family="Inter, system-ui, sans-serif" font-size="12" font-weight="400" text-anchor="middle">Fast value dial-in</text>

  <!-- Amazon button -->
  <a xlink:href="https://www.amazon.com/dp/B0BW272XCV/ref=nosim?tag=coffee-site-20" target="_blank">
    <rect x="58" y="568" width="182" height="40" rx="8" fill="#059669"/>
    <text x="149" y="594" fill="#fff" font-family="Inter, system-ui, sans-serif" font-size="14" font-weight="600" text-anchor="middle">Check Price on Amazon</text>
  </a>

  <!-- ==================== Card 2: Precision ==================== -->
  <rect x="274" y="150" width="210" height="520" rx="12" fill="#EFDFCE"/>
  <rect x="274" y="150" width="210" height="90" rx="12" fill="#2C1810"/>
  <rect x="274" y="214" width="210" height="26" fill="#2C1810"/>
  <!-- Target/crosshair icon -->
  <circle cx="379" cy="190" r="24" fill="none" stroke="#fff" stroke-width="2.5"/>
  <circle cx="379" cy="190" r="14" fill="none" stroke="#fff" stroke-width="2"/>
  <circle cx="379" cy="190" r="5" fill="#fff"/>
  <text x="379" y="232" fill="#fff" font-family="Inter, system-ui, sans-serif" font-size="14" font-weight="700" text-anchor="middle" letter-spacing="2">PRECISION</text>

  <text x="379" y="272" fill="#2C1810" font-family="Inter, system-ui, sans-serif" font-size="15" font-weight="600" text-anchor="middle">Fine-tune every shot</text>
  <line x1="302" y1="288" x2="456" y2="288" stroke="#D4C4B0" stroke-width="1"/>

  <text x="298" y="318" fill="#5C3D2E" font-family="Inter, system-ui, sans-serif" font-size="15" font-weight="400">&#x2713;  Stepless adjustment</text>
  <text x="298" y="348" fill="#5C3D2E" font-family="Inter, system-ui, sans-serif" font-size="15" font-weight="400">&#x2713;  64mm flat burrs</text>
  <text x="298" y="378" fill="#5C3D2E" font-family="Inter, system-ui, sans-serif" font-size="15" font-weight="400">&#x2713;  Low retention</text>
  <text x="298" y="408" fill="#5C3D2E" font-family="Inter, system-ui, sans-serif" font-size="15" font-weight="400">&#x2713;  Prosumer grade</text>

  <rect x="288" y="436" width="182" height="62" rx="8" fill="#FAF8F5" stroke="#2C1810" stroke-width="1.5"/>
  <text x="379" y="460" fill="#2C1810" font-family="Inter, system-ui, sans-serif" font-size="11" font-weight="700" text-anchor="middle" letter-spacing="1.5">TOP PICK</text>
  <text x="379" y="484" fill="#2C1810" font-family="Inter, system-ui, sans-serif" font-size="16" font-weight="600" text-anchor="middle">DF64 Gen 2</text>

  <text x="379" y="528" fill="#7A5B4A" font-family="Inter, system-ui, sans-serif" font-size="22" font-weight="600" text-anchor="middle">$$$</text>
  <text x="379" y="548" fill="#9A8577" font-family="Inter, system-ui, sans-serif" font-size="12" font-weight="400" text-anchor="middle">Fine control for shot tuning</text>

  <a xlink:href="https://www.amazon.com/dp/B0D962ZSCM/ref=nosim?tag=coffee-site-20" target="_blank">
    <rect x="288" y="568" width="182" height="40" rx="8" fill="#2C1810"/>
    <text x="379" y="594" fill="#fff" font-family="Inter, system-ui, sans-serif" font-size="14" font-weight="600" text-anchor="middle">Check Price on Amazon</text>
  </a>

  <!-- ==================== Card 3: Quiet ==================== -->
  <rect x="504" y="150" width="210" height="520" rx="12" fill="#EFDFCE"/>
  <rect x="504" y="150" width="210" height="90" rx="12" fill="#7A5B4A"/>
  <rect x="504" y="214" width="210" height="26" fill="#7A5B4A"/>
  <!-- Volume-X icon (Lucide) -->
  <g transform="translate(593, 174) scale(1.3)" fill="none" stroke="#fff" stroke-width="2" stroke-linecap="round" stroke-linejoin="round">
    <path d="M11 4.702a.705.705 0 0 0-1.203-.498L6.413 7.587A1.4 1.4 0 0 1 5.416 8H3a1 1 0 0 0-1 1v6a1 1 0 0 0 1 1h2.416a1.4 1.4 0 0 1 .997.413l3.383 3.384A.705.705 0 0 0 11 19.298z" fill="#fff" stroke="none"/>
    <line x1="22" x2="16" y1="9" y2="15"/>
    <line x1="16" x2="22" y1="9" y2="15"/>
  </g>
  <text x="609" y="232" fill="#fff" font-family="Inter, system-ui, sans-serif" font-size="14" font-weight="700" text-anchor="middle" letter-spacing="2">QUIET</text>

  <text x="609" y="272" fill="#2C1810" font-family="Inter, system-ui, sans-serif" font-size="15" font-weight="600" text-anchor="middle">Low-noise mornings</text>
  <line x1="532" y1="288" x2="686" y2="288" stroke="#D4C4B0" stroke-width="1"/>

  <text x="528" y="318" fill="#5C3D2E" font-family="Inter, system-ui, sans-serif" font-size="15" font-weight="400">&#x2713;  Noise-dampened</text>
  <text x="528" y="348" fill="#5C3D2E" font-family="Inter, system-ui, sans-serif" font-size="15" font-weight="400">&#x2713;  Conical burrs</text>
  <text x="528" y="378" fill="#5C3D2E" font-family="Inter, system-ui, sans-serif" font-size="15" font-weight="400">&#x2713;  Consistent grind</text>
  <text x="528" y="408" fill="#5C3D2E" font-family="Inter, system-ui, sans-serif" font-size="15" font-weight="400">&#x2713;  Early-riser friendly</text>

  <rect x="518" y="436" width="182" height="62" rx="8" fill="#FAF8F5" stroke="#7A5B4A" stroke-width="1.5"/>
  <text x="609" y="460" fill="#7A5B4A" font-family="Inter, system-ui, sans-serif" font-size="11" font-weight="700" text-anchor="middle" letter-spacing="1.5">TOP PICK</text>
  <text x="609" y="484" fill="#2C1810" font-family="Inter, system-ui, sans-serif" font-size="16" font-weight="600" text-anchor="middle">Eureka Mignon Specialita</text>

  <text x="609" y="528" fill="#7A5B4A" font-family="Inter, system-ui, sans-serif" font-size="22" font-weight="600" text-anchor="middle">$$$</text>
  <text x="609" y="548" fill="#9A8577" font-family="Inter, system-ui, sans-serif" font-size="12" font-weight="400" text-anchor="middle">Lower-noise routines</text>

  <a xlink:href="https://www.amazon.com/dp/B07GFV6HM8/ref=nosim?tag=coffee-site-20" target="_blank">
    <rect x="518" y="568" width="182" height="40" rx="8" fill="#7A5B4A"/>
    <text x="609" y="594" fill="#fff" font-family="Inter, system-ui, sans-serif" font-size="14" font-weight="600" text-anchor="middle">Check Price on Amazon</text>
  </a>

  <!-- ==================== Card 4: Manual ==================== -->
  <rect x="734" y="150" width="210" height="520" rx="12" fill="#EFDFCE"/>
  <rect x="734" y="150" width="210" height="90" rx="12" fill="#8B6F47"/>
  <rect x="734" y="214" width="210" height="26" fill="#8B6F47"/>
  <!-- Hand icon (Lucide) -->
  <g transform="translate(823, 174) scale(1.3)" fill="none" stroke="#fff" stroke-width="2" stroke-linecap="round" stroke-linejoin="round">
    <path d="M18 11V6a2 2 0 0 0-2-2a2 2 0 0 0-2 2"/>
    <path d="M14 10V4a2 2 0 0 0-2-2a2 2 0 0 0-2 2v2"/>
    <path d="M10 10.5V6a2 2 0 0 0-2-2a2 2 0 0 0-2 2v8"/>
    <path d="M18 8a2 2 0 1 1 4 0v6a8 8 0 0 1-8 8h-2c-2.8 0-4.5-.86-5.99-2.34l-3.6-3.6a2 2 0 0 1 2.83-2.82L7 15"/>
  </g>
  <text x="839" y="232" fill="#fff" font-family="Inter, system-ui, sans-serif" font-size="14" font-weight="700" text-anchor="middle" letter-spacing="2">MANUAL</text>

  <text x="839" y="272" fill="#2C1810" font-family="Inter, system-ui, sans-serif" font-size="15" font-weight="600" text-anchor="middle">Portable precision</text>
  <line x1="762" y1="288" x2="916" y2="288" stroke="#D4C4B0" stroke-width="1"/>

  <text x="758" y="318" fill="#5C3D2E" font-family="Inter, system-ui, sans-serif" font-size="15" font-weight="400">&#x2713;  Hand-cranked</text>
  <text x="758" y="348" fill="#5C3D2E" font-family="Inter, system-ui, sans-serif" font-size="15" font-weight="400">&#x2713;  Travel-ready</text>
  <text x="758" y="378" fill="#5C3D2E" font-family="Inter, system-ui, sans-serif" font-size="15" font-weight="400">&#x2713;  Zero counter noise</text>
  <text x="758" y="408" fill="#5C3D2E" font-family="Inter, system-ui, sans-serif" font-size="15" font-weight="400">&#x2713;  Espresso-capable</text>

  <rect x="748" y="436" width="182" height="62" rx="8" fill="#FAF8F5" stroke="#8B6F47" stroke-width="1.5"/>
  <text x="839" y="460" fill="#8B6F47" font-family="Inter, system-ui, sans-serif" font-size="11" font-weight="700" text-anchor="middle" letter-spacing="1.5">TOP PICK</text>
  <text x="839" y="484" fill="#2C1810" font-family="Inter, system-ui, sans-serif" font-size="16" font-weight="600" text-anchor="middle">1Zpresso J-Ultra</text>

  <text x="839" y="528" fill="#7A5B4A" font-family="Inter, system-ui, sans-serif" font-size="22" font-weight="600" text-anchor="middle">$$</text>
  <text x="839" y="548" fill="#9A8577" font-family="Inter, system-ui, sans-serif" font-size="12" font-weight="400" text-anchor="middle">Portable precision</text>

  <a xlink:href="https://www.amazon.com/dp/B0CKYDV932/ref=nosim?tag=coffee-site-20" target="_blank">
    <rect x="748" y="568" width="182" height="40" rx="8" fill="#8B6F47"/>
    <text x="839" y="594" fill="#fff" font-family="Inter, system-ui, sans-serif" font-size="14" font-weight="600" text-anchor="middle">Check Price on Amazon</text>
  </a>

  <!-- Footer -->
  <text x="480" y="680" fill="#9A8577" font-family="Inter, system-ui, sans-serif" font-size="13" font-weight="400" text-anchor="middle">coffeegearlab.com  ·  7 grinders tested  ·  2026 editorial picks</text>
</svg>
