<svg xmlns="http://www.w3.org/2000/svg" width="1200" height="675" viewBox="0 0 1200 675" role="img" aria-labelledby="title desc">
  <title id="title">Best coffee maker with grinder comparison for 2026</title>
  <desc id="desc">Editorial hero illustration showing three comparison pillars for grind-and-brew coffee makers: grinder quality, brew flexibility, and cleanup effort.</desc>

  <rect x="0" y="0" width="1200" height="675" fill="#FAF8F5" />

  <rect x="56" y="52" width="1088" height="571" rx="12" fill="#F5EDE4" />
  <rect x="96" y="118" width="1008" height="2" fill="#B89B8A" />

  <text x="96" y="96" fill="#2C1810" font-family="Inter, system-ui, sans-serif" font-size="42" font-weight="800">Best Coffee Maker with Grinder</text>
  <text x="96" y="150" fill="#5C3D2E" font-family="Inter, system-ui, sans-serif" font-size="28" font-weight="600">2026 buyer framework: compare what matters first</text>

  <rect x="96" y="190" width="312" height="360" rx="12" fill="#EFDFCE" />
  <rect x="444" y="190" width="312" height="360" rx="12" fill="#EFDFCE" />
  <rect x="792" y="190" width="312" height="360" rx="12" fill="#EFDFCE" />

  <circle cx="156" cy="248" r="20" fill="#059669" />
  <rect x="188" y="230" width="180" height="16" rx="8" fill="#2C1810" />
  <rect x="188" y="258" width="150" height="12" rx="6" fill="#7A5B4A" />
  <text x="124" y="304" fill="#2C1810" font-family="Inter, system-ui, sans-serif" font-size="30" font-weight="800">Grinder Quality</text>
  <text x="124" y="342" fill="#5C3D2E" font-family="Inter, system-ui, sans-serif" font-size="22" font-weight="400">Burr vs blade consistency</text>
  <text x="124" y="374" fill="#5C3D2E" font-family="Inter, system-ui, sans-serif" font-size="22" font-weight="400">Flavor clarity potential</text>

  <circle cx="504" cy="248" r="20" fill="#059669" />
  <rect x="536" y="230" width="180" height="16" rx="8" fill="#2C1810" />
  <rect x="536" y="258" width="150" height="12" rx="6" fill="#7A5B4A" />
  <text x="472" y="304" fill="#2C1810" font-family="Inter, system-ui, sans-serif" font-size="30" font-weight="800">Brew Flexibility</text>
  <text x="472" y="342" fill="#5C3D2E" font-family="Inter, system-ui, sans-serif" font-size="22" font-weight="400">Single cup and carafe fit</text>
  <text x="472" y="374" fill="#5C3D2E" font-family="Inter, system-ui, sans-serif" font-size="22" font-weight="400">Pre-ground bypass mode</text>

  <circle cx="852" cy="248" r="20" fill="#059669" />
  <rect x="884" y="230" width="180" height="16" rx="8" fill="#2C1810" />
  <rect x="884" y="258" width="150" height="12" rx="6" fill="#7A5B4A" />
  <text x="820" y="304" fill="#2C1810" font-family="Inter, system-ui, sans-serif" font-size="30" font-weight="800">Cleanup Burden</text>
  <text x="820" y="342" fill="#5C3D2E" font-family="Inter, system-ui, sans-serif" font-size="22" font-weight="400">Daily rinse time</text>
  <text x="820" y="374" fill="#5C3D2E" font-family="Inter, system-ui, sans-serif" font-size="22" font-weight="400">Descaling and chute access</text>

  <path d="M248 518 L600 518" stroke="#059669" stroke-width="6" stroke-linecap="round" />
  <path d="M600 518 L952 518" stroke="#059669" stroke-width="6" stroke-linecap="round" />
  <circle cx="248" cy="518" r="9" fill="#059669" />
  <circle cx="600" cy="518" r="9" fill="#059669" />
  <circle cx="952" cy="518" r="9" fill="#059669" />

  <text x="96" y="594" fill="#7A5B4A" font-family="Inter, system-ui, sans-serif" font-size="20" font-weight="400">Research-based editorial visual. No product rankings shown in the graphic.</text>
</svg>
