<svg xmlns="http://www.w3.org/2000/svg" width="1200" height="675" viewBox="0 0 1200 675" role="img" aria-labelledby="title desc">
  <title id="title">Editorial comparison of seven espresso burr grinders across budget, workflow style, and precision needs</title>
  <desc id="desc">Warm-toned illustration with four buyer profile lanes, abstract grinder silhouettes, and green precision callouts for espresso workflow priorities.</desc>

  <rect width="1200" height="675" fill="#FAF8F5"/>
  <rect x="36" y="36" width="1128" height="603" rx="12" fill="#F5EDE4"/>

  <text x="72" y="104" fill="#2C1810" font-family="Inter, system-ui, sans-serif" font-size="42" font-weight="800">Best Burr Grinder for Espresso</text>
  <text x="72" y="140" fill="#5C3D2E" font-family="Inter, system-ui, sans-serif" font-size="24" font-weight="400">Compare by workflow fit: budget, precision, quiet mornings, and manual control</text>

  <rect x="72" y="184" width="252" height="398" rx="12" fill="#EFDFCE"/>
  <rect x="348" y="184" width="252" height="398" rx="12" fill="#EFDFCE"/>
  <rect x="624" y="184" width="252" height="398" rx="12" fill="#EFDFCE"/>
  <rect x="900" y="184" width="228" height="398" rx="12" fill="#EFDFCE"/>

  <text x="90" y="226" fill="#2C1810" font-family="Inter, system-ui, sans-serif" font-size="21" font-weight="600">Budget lane</text>
  <text x="366" y="226" fill="#2C1810" font-family="Inter, system-ui, sans-serif" font-size="21" font-weight="600">Precision lane</text>
  <text x="642" y="226" fill="#2C1810" font-family="Inter, system-ui, sans-serif" font-size="21" font-weight="600">Quiet lane</text>
  <text x="918" y="226" fill="#2C1810" font-family="Inter, system-ui, sans-serif" font-size="21" font-weight="600">Manual lane</text>

  <g fill="none" stroke="#5C3D2E" stroke-width="5">
    <rect x="122" y="272" width="150" height="176" rx="12"/>
    <circle cx="197" cy="328" r="26"/>
    <line x1="197" y1="448" x2="197" y2="500"/>

    <rect x="398" y="258" width="152" height="196" rx="12"/>
    <circle cx="474" cy="320" r="32"/>
    <line x1="428" y1="458" x2="520" y2="458"/>

    <rect x="674" y="272" width="150" height="176" rx="12"/>
    <circle cx="749" cy="330" r="24"/>
    <line x1="704" y1="460" x2="794" y2="460"/>

    <rect x="962" y="286" width="106" height="154" rx="53"/>
    <circle cx="1015" cy="346" r="21"/>
    <line x1="1015" y1="440" x2="1015" y2="500"/>
  </g>

  <g fill="none" stroke="#059669" stroke-width="4">
    <path d="M414 545 C470 512, 524 512, 580 545"/>
    <path d="M128 532 C180 500, 238 500, 286 532"/>
    <path d="M684 532 C730 508, 776 508, 822 532"/>
  </g>

  <g fill="#059669">
    <circle cx="474" cy="514" r="10"/>
    <circle cx="197" cy="500" r="8"/>
    <circle cx="749" cy="502" r="8"/>
  </g>

  <text x="90" y="560" fill="#7A5B4A" font-family="Inter, system-ui, sans-serif" font-size="18" font-weight="400">Fast value dial-in</text>
  <text x="366" y="560" fill="#7A5B4A" font-family="Inter, system-ui, sans-serif" font-size="18" font-weight="400">Fine control for shot tuning</text>
  <text x="642" y="560" fill="#7A5B4A" font-family="Inter, system-ui, sans-serif" font-size="18" font-weight="400">Lower-noise routines</text>
  <text x="918" y="560" fill="#7A5B4A" font-family="Inter, system-ui, sans-serif" font-size="18" font-weight="400">Portable precision</text>
</svg>
