<svg xmlns="http://www.w3.org/2000/svg" width="1200" height="675" viewBox="0 0 1200 675" role="img" aria-labelledby="title desc">
  <title id="title">Manual coffee grinder picks under 100 dollars</title>
  <desc id="desc">Editorial illustration showing abstract hand grinder silhouettes grouped into value tiers with warm neutral backgrounds and green highlights.</desc>

  <rect x="0" y="0" width="1200" height="675" fill="#FAF8F5"/>
  <rect x="48" y="52" width="1104" height="571" rx="24" fill="#F5EDE4"/>

  <text x="600" y="128" text-anchor="middle" fill="#2C1810" font-family="Inter, system-ui, sans-serif" font-size="52" font-weight="800">
    Manual Grinder Picks Under $100
  </text>
  <text x="600" y="170" text-anchor="middle" fill="#5C3D2E" font-family="Inter, system-ui, sans-serif" font-size="24" font-weight="400">
    Compare workflow fit, grind range, and daily effort
  </text>

  <g transform="translate(104 216)">
    <rect width="300" height="336" rx="16" fill="#EFDFCE"/>
    <rect x="18" y="18" width="264" height="8" rx="4" fill="#059669"/>
    <text x="26" y="62" fill="#2C1810" font-family="Inter, system-ui, sans-serif" font-size="30" font-weight="600">Best Overall Value</text>

    <g transform="translate(94 96)">
      <rect x="20" y="0" width="74" height="26" rx="8" fill="#7A5B4A"/>
      <rect x="0" y="24" width="114" height="138" rx="16" fill="#5C3D2E"/>
      <rect x="18" y="56" width="78" height="18" rx="9" fill="#EFDFCE"/>
      <circle cx="57" cy="104" r="26" fill="#FAF8F5"/>
      <circle cx="57" cy="104" r="10" fill="#7A5B4A"/>
      <rect x="112" y="66" width="26" height="16" rx="8" fill="#7A5B4A"/>
      <rect x="130" y="44" width="12" height="34" rx="6" fill="#5C3D2E"/>
    </g>

    <text x="26" y="292" fill="#5C3D2E" font-family="Inter, system-ui, sans-serif" font-size="20" font-weight="400">Balanced for filter + espresso range</text>
  </g>

  <g transform="translate(450 216)">
    <rect width="300" height="336" rx="16" fill="#EFDFCE"/>
    <rect x="18" y="18" width="264" height="8" rx="4" fill="#059669"/>
    <text x="26" y="62" fill="#2C1810" font-family="Inter, system-ui, sans-serif" font-size="30" font-weight="600">Fast Daily Workflow</text>

    <g transform="translate(94 96)">
      <rect x="24" y="0" width="66" height="24" rx="8" fill="#7A5B4A"/>
      <rect x="4" y="22" width="106" height="142" rx="18" fill="#5C3D2E"/>
      <rect x="16" y="56" width="82" height="14" rx="7" fill="#EFDFCE"/>
      <circle cx="57" cy="106" r="24" fill="#FAF8F5"/>
      <circle cx="57" cy="106" r="8" fill="#7A5B4A"/>
      <path d="M111 74h34" stroke="#7A5B4A" stroke-width="12" stroke-linecap="round"/>
      <path d="M144 74v-26" stroke="#5C3D2E" stroke-width="10" stroke-linecap="round"/>
    </g>

    <text x="26" y="292" fill="#5C3D2E" font-family="Inter, system-ui, sans-serif" font-size="20" font-weight="400">Lower effort and quicker morning doses</text>
  </g>

  <g transform="translate(796 216)">
    <rect width="300" height="336" rx="16" fill="#EFDFCE"/>
    <rect x="18" y="18" width="264" height="8" rx="4" fill="#059669"/>
    <text x="26" y="62" fill="#2C1810" font-family="Inter, system-ui, sans-serif" font-size="30" font-weight="600">Travel-Ready Picks</text>

    <g transform="translate(94 96)">
      <rect x="30" y="0" width="54" height="22" rx="8" fill="#7A5B4A"/>
      <rect x="14" y="20" width="86" height="146" rx="20" fill="#5C3D2E"/>
      <rect x="26" y="62" width="62" height="14" rx="7" fill="#EFDFCE"/>
      <circle cx="57" cy="110" r="22" fill="#FAF8F5"/>
      <circle cx="57" cy="110" r="8" fill="#7A5B4A"/>
      <path d="M102 70h28" stroke="#7A5B4A" stroke-width="10" stroke-linecap="round"/>
      <path d="M128 70v-20" stroke="#5C3D2E" stroke-width="8" stroke-linecap="round"/>
    </g>

    <text x="26" y="292" fill="#5C3D2E" font-family="Inter, system-ui, sans-serif" font-size="20" font-weight="400">Compact bodies for travel coffee setups</text>
  </g>

  <rect x="96" y="576" width="1008" height="1" fill="#B89B8A"/>
  <text x="600" y="610" text-anchor="middle" fill="#7A5B4A" font-family="Inter, system-ui, sans-serif" font-size="18" font-weight="400">
    Editorial concept illustration · no product list · 2026 guide
  </text>
</svg>
