<svg xmlns="http://www.w3.org/2000/svg" width="1200" height="675" viewBox="0 0 1200 675" role="img" aria-labelledby="title desc">
  <title id="title">Editorial ranking of grind-and-brew coffee makers under two hundred dollars</title>
  <desc id="desc">Warm-toned hero illustration with a ranked ladder of abstract coffee brewer silhouettes and green highlight markers for top value, easiest cleanup, and flavor upgrade.</desc>

  <rect width="1200" height="675" fill="#FAF8F5"/>
  <rect x="52" y="52" width="1096" height="571" rx="12" fill="#F5EDE4"/>

  <text x="86" y="124" fill="#2C1810" font-family="Inter, system-ui, sans-serif" font-size="46" font-weight="800">Best Grind-and-Brew Picks Under $200</text>
  <text x="86" y="162" fill="#5C3D2E" font-family="Inter, system-ui, sans-serif" font-size="24" font-weight="400">Ranked for morning workflow, cleanup effort, and day-to-day value</text>

  <rect x="86" y="196" width="318" height="48" rx="12" fill="#ECFDF5" stroke="#059669"/>
  <text x="108" y="227" fill="#2C1810" font-family="Inter, system-ui, sans-serif" font-size="20" font-weight="600">Top Value Pick</text>
  <rect x="420" y="196" width="318" height="48" rx="12" fill="#EFDFCE" stroke="#059669"/>
  <text x="442" y="227" fill="#2C1810" font-family="Inter, system-ui, sans-serif" font-size="20" font-weight="600">Easiest Cleanup</text>
  <rect x="754" y="196" width="318" height="48" rx="12" fill="#ECFDF5" stroke="#059669"/>
  <text x="776" y="227" fill="#2C1810" font-family="Inter, system-ui, sans-serif" font-size="20" font-weight="600">Flavor Upgrade</text>

  <rect x="96" y="292" width="996" height="280" rx="12" fill="#FAF8F5" stroke="#B89B8A"/>

  <path d="M170 520 L170 390 C170 370 186 354 206 354 H294 C314 354 330 370 330 390 V520" fill="#EFDFCE" stroke="#5C3D2E" stroke-width="4"/>
  <rect x="196" y="326" width="108" height="42" rx="12" fill="#FAF8F5" stroke="#5C3D2E" stroke-width="3"/>
  <circle cx="250" cy="447" r="40" fill="none" stroke="#5C3D2E" stroke-width="6"/>

  <path d="M430 520 L430 364 C430 344 446 328 466 328 H554 C574 328 590 344 590 364 V520" fill="#EFDFCE" stroke="#5C3D2E" stroke-width="4"/>
  <rect x="456" y="300" width="108" height="42" rx="12" fill="#FAF8F5" stroke="#5C3D2E" stroke-width="3"/>
  <circle cx="510" cy="438" r="44" fill="none" stroke="#5C3D2E" stroke-width="6"/>

  <path d="M690 520 L690 338 C690 318 706 302 726 302 H814 C834 302 850 318 850 338 V520" fill="#EFDFCE" stroke="#5C3D2E" stroke-width="4"/>
  <rect x="716" y="274" width="108" height="42" rx="12" fill="#FAF8F5" stroke="#5C3D2E" stroke-width="3"/>
  <circle cx="770" cy="430" r="48" fill="none" stroke="#5C3D2E" stroke-width="6"/>

  <path d="M930 520 L930 312 C930 292 946 276 966 276 H1054 C1074 276 1090 292 1090 312 V520" fill="#EFDFCE" stroke="#5C3D2E" stroke-width="4"/>
  <rect x="956" y="248" width="108" height="42" rx="12" fill="#FAF8F5" stroke="#5C3D2E" stroke-width="3"/>
  <circle cx="1010" cy="420" r="52" fill="none" stroke="#5C3D2E" stroke-width="6"/>

  <path d="M250 276 C360 250, 480 246, 770 250" fill="none" stroke="#059669" stroke-width="6" stroke-linecap="round" stroke-dasharray="10 10"/>
  <path d="M770 250 C860 250, 932 236, 1010 218" fill="none" stroke="#059669" stroke-width="6" stroke-linecap="round"/>

  <circle cx="250" cy="276" r="10" fill="#059669"/>
  <circle cx="770" cy="250" r="10" fill="#059669"/>
  <circle cx="1010" cy="218" r="10" fill="#059669"/>

  <text x="188" y="560" fill="#7A5B4A" font-family="Inter, system-ui, sans-serif" font-size="18" font-weight="400">Budget tier</text>
  <text x="454" y="560" fill="#7A5B4A" font-family="Inter, system-ui, sans-serif" font-size="18" font-weight="400">Practical daily pick</text>
  <text x="714" y="560" fill="#7A5B4A" font-family="Inter, system-ui, sans-serif" font-size="18" font-weight="400">Balanced performance</text>
  <text x="950" y="560" fill="#7A5B4A" font-family="Inter, system-ui, sans-serif" font-size="18" font-weight="400">Upper-budget upgrade</text>
</svg>
