<svg xmlns="http://www.w3.org/2000/svg" width="1200" height="675" viewBox="0 0 1200 675" role="img" aria-labelledby="title desc">
  <title id="title">Pour-over brewer comparison illustration</title>
  <desc id="desc">Editorial scene with six abstract pour-over brewer silhouettes, feature callouts, and warm coffee-toned accents for a comparison guide.</desc>

  <rect x="0" y="0" width="1200" height="675" fill="#FAF8F5" />
  <rect x="44" y="44" width="1112" height="587" rx="12" fill="#F5EDE4" />

  <text x="76" y="110" fill="#2C1810" font-family="Inter, system-ui, sans-serif" font-size="52" font-weight="800">Best Pour Over Coffee Maker (2026)</text>
  <text x="76" y="150" fill="#5C3D2E" font-family="Inter, system-ui, sans-serif" font-size="26" font-weight="400">6 researched picks for taste profile, workflow, and daily consistency</text>

  <rect x="76" y="188" width="248" height="42" rx="12" fill="#ECFDF5" stroke="#059669" stroke-width="2"/>
  <text x="96" y="216" fill="#059669" font-family="Inter, system-ui, sans-serif" font-size="22" font-weight="600">Best Overall • V60 02</text>

  <g transform="translate(76,262)">
    <rect width="170" height="280" rx="12" fill="#EFDFCE"/>
    <path d="M52 76 L118 76 L96 166 L74 166 Z" fill="#5C3D2E"/>
    <rect x="64" y="166" width="44" height="62" rx="8" fill="#B89B8A"/>
    <rect x="48" y="228" width="76" height="12" rx="6" fill="#7A5B4A"/>
    <text x="85" y="260" text-anchor="middle" fill="#2C1810" font-family="Inter, system-ui, sans-serif" font-size="18" font-weight="600">Cone</text>
  </g>

  <g transform="translate(274,262)">
    <rect width="170" height="280" rx="12" fill="#EFDFCE"/>
    <path d="M44 84 C44 64,126 64,126 84 L112 188 C110 204,60 204,58 188 Z" fill="#5C3D2E"/>
    <rect x="68" y="188" width="34" height="54" rx="8" fill="#B89B8A"/>
    <text x="85" y="260" text-anchor="middle" fill="#2C1810" font-family="Inter, system-ui, sans-serif" font-size="18" font-weight="600">Carafe</text>
  </g>

  <g transform="translate(472,262)">
    <rect width="170" height="280" rx="12" fill="#EFDFCE"/>
    <path d="M56 74 L114 74 L100 172 L70 172 Z" fill="#5C3D2E"/>
    <ellipse cx="85" cy="192" rx="38" ry="16" fill="#B89B8A"/>
    <text x="85" y="260" text-anchor="middle" fill="#2C1810" font-family="Inter, system-ui, sans-serif" font-size="18" font-weight="600">Classic</text>
  </g>

  <g transform="translate(670,262)">
    <rect width="170" height="280" rx="12" fill="#EFDFCE"/>
    <path d="M54 74 L116 74 L100 168 L70 168 Z" fill="#5C3D2E"/>
    <rect x="62" y="170" width="46" height="26" rx="8" fill="#059669"/>
    <text x="85" y="188" text-anchor="middle" fill="#FAF8F5" font-family="Inter, system-ui, sans-serif" font-size="14" font-weight="600">Switch</text>
    <text x="85" y="260" text-anchor="middle" fill="#2C1810" font-family="Inter, system-ui, sans-serif" font-size="18" font-weight="600">Hybrid</text>
  </g>

  <g transform="translate(868,262)">
    <rect width="170" height="280" rx="12" fill="#EFDFCE"/>
    <path d="M60 82 L110 82 L96 170 L74 170 Z" fill="#5C3D2E"/>
    <rect x="70" y="170" width="30" height="58" rx="8" fill="#B89B8A"/>
    <text x="85" y="260" text-anchor="middle" fill="#2C1810" font-family="Inter, system-ui, sans-serif" font-size="18" font-weight="600">Solo</text>
  </g>

  <path d="M180 228 C180 212,198 210,198 194 C198 179,182 176,182 160" stroke="#059669" stroke-width="4" fill="none" stroke-linecap="round"/>
  <path d="M380 228 C380 212,398 210,398 194 C398 179,382 176,382 160" stroke="#059669" stroke-width="4" fill="none" stroke-linecap="round"/>
  <path d="M578 228 C578 212,596 210,596 194 C596 179,580 176,580 160" stroke="#059669" stroke-width="4" fill="none" stroke-linecap="round"/>
  <path d="M778 228 C778 212,796 210,796 194 C796 179,780 176,780 160" stroke="#059669" stroke-width="4" fill="none" stroke-linecap="round"/>
  <path d="M976 228 C976 212,994 210,994 194 C994 179,978 176,978 160" stroke="#059669" stroke-width="4" fill="none" stroke-linecap="round"/>

  <rect x="76" y="570" width="1048" height="44" rx="12" fill="#EFDFCE"/>
  <text x="600" y="598" text-anchor="middle" fill="#5C3D2E" font-family="Inter, system-ui, sans-serif" font-size="22" font-weight="400">Compare brew style, forgiveness, and cleanup effort before you buy.</text>
</svg>
