<svg xmlns="http://www.w3.org/2000/svg" width="1200" height="675" viewBox="0 0 1200 675" role="img" aria-labelledby="title desc">
  <title id="title">Daily, weekly, and monthly burr grinder cleaning workflow</title>
  <desc id="desc">Editorial three-stage timeline showing a grinder silhouette, cleaning brush, and calibration marks for routine maintenance.</desc>
  <rect width="1200" height="675" fill="#FAF8F5"/>

  <rect x="60" y="70" width="1080" height="535" rx="24" fill="#F5EDE4" stroke="#EFDFCE" stroke-width="2"/>

  <text x="90" y="130" fill="#2C1810" font-family="Inter, system-ui, sans-serif" font-size="44" font-weight="800">Clean Burr Grinder Routine</text>
  <text x="90" y="168" fill="#5C3D2E" font-family="Inter, system-ui, sans-serif" font-size="24" font-weight="400">A simple rhythm for better flavor and steadier grind output</text>

  <line x1="170" y1="500" x2="1030" y2="500" stroke="#B89B8A" stroke-width="4"/>

  <circle cx="250" cy="500" r="16" fill="#059669"/>
  <circle cx="600" cy="500" r="16" fill="#059669"/>
  <circle cx="950" cy="500" r="16" fill="#059669"/>

  <rect x="150" y="230" width="200" height="220" rx="12" fill="#FAF8F5" stroke="#EFDFCE"/>
  <rect x="215" y="250" width="70" height="85" rx="12" fill="#EFDFCE"/>
  <rect x="230" y="338" width="40" height="58" rx="10" fill="#EFDFCE"/>
  <path d="M178 350 L212 316" stroke="#059669" stroke-width="7" stroke-linecap="round"/>
  <rect x="170" y="352" width="22" height="56" rx="8" fill="#059669"/>
  <text x="250" y="430" text-anchor="middle" fill="#2C1810" font-family="Inter, system-ui, sans-serif" font-size="24" font-weight="600">Daily</text>

  <rect x="500" y="210" width="200" height="240" rx="12" fill="#FAF8F5" stroke="#EFDFCE"/>
  <rect x="565" y="230" width="70" height="80" rx="12" fill="#EFDFCE"/>
  <rect x="545" y="315" width="110" height="70" rx="10" fill="#EFDFCE"/>
  <path d="M545 345 C568 320, 632 320, 655 345" fill="none" stroke="#059669" stroke-width="5"/>
  <path d="M545 366 C568 341, 632 341, 655 366" fill="none" stroke="#059669" stroke-width="5"/>
  <text x="600" y="430" text-anchor="middle" fill="#2C1810" font-family="Inter, system-ui, sans-serif" font-size="24" font-weight="600">Weekly</text>

  <rect x="850" y="190" width="200" height="260" rx="12" fill="#FAF8F5" stroke="#EFDFCE"/>
  <circle cx="950" cy="295" r="56" fill="#EFDFCE"/>
  <circle cx="950" cy="295" r="30" fill="none" stroke="#059669" stroke-width="8"/>
  <line x1="950" y1="243" x2="950" y2="225" stroke="#5C3D2E" stroke-width="4" stroke-linecap="round"/>
  <line x1="995" y1="265" x2="1010" y2="250" stroke="#5C3D2E" stroke-width="4" stroke-linecap="round"/>
  <line x1="1002" y1="310" x2="1020" y2="310" stroke="#5C3D2E" stroke-width="4" stroke-linecap="round"/>
  <line x1="995" y1="325" x2="1010" y2="340" stroke="#5C3D2E" stroke-width="4" stroke-linecap="round"/>
  <line x1="950" y1="347" x2="950" y2="365" stroke="#5C3D2E" stroke-width="4" stroke-linecap="round"/>
  <line x1="905" y1="325" x2="890" y2="340" stroke="#5C3D2E" stroke-width="4" stroke-linecap="round"/>
  <line x1="898" y1="310" x2="880" y2="310" stroke="#5C3D2E" stroke-width="4" stroke-linecap="round"/>
  <line x1="905" y1="265" x2="890" y2="250" stroke="#5C3D2E" stroke-width="4" stroke-linecap="round"/>
  <text x="950" y="430" text-anchor="middle" fill="#2C1810" font-family="Inter, system-ui, sans-serif" font-size="24" font-weight="600">Monthly</text>

  <text x="250" y="548" text-anchor="middle" fill="#7A5B4A" font-family="Inter, system-ui, sans-serif" font-size="21" font-weight="400">Brush chute + wipe oils</text>
  <text x="600" y="548" text-anchor="middle" fill="#7A5B4A" font-family="Inter, system-ui, sans-serif" font-size="21" font-weight="400">Clean hopper + burr access</text>
  <text x="950" y="548" text-anchor="middle" fill="#7A5B4A" font-family="Inter, system-ui, sans-serif" font-size="21" font-weight="400">Deep chamber reset + purge</text>
</svg>
